<mxfile host="app.diagrams.net" modified="2021-04-24T12:00:59.793Z" agent="5.0 (Windows NT 10.0; Win64; x64) AppleWebKit/537.36 (KHTML, like Gecko) Chrome/90.0.4430.72 Safari/537.36" etag="uhdKVk1AmOz9qx4cWT81" version="14.6.6" type="github">
  <diagram id="U9FM9EWuSM0mghXvgGzd" name="Page-1">
    <mxGraphModel dx="705" dy="323" grid="1" gridSize="10" guides="1" tooltips="1" connect="1" arrows="1" fold="1" page="1" pageScale="1" pageWidth="1169" pageHeight="1654" math="0" shadow="0">
      <root>
        <mxCell id="0" />
        <mxCell id="1" parent="0" />
        <mxCell id="135Wbb7dRrLtCOBs6Vqc-1" value="" style="rounded=1;whiteSpace=wrap;html=1;" vertex="1" parent="1">
          <mxGeometry x="340" y="130" width="370" height="590" as="geometry" />
        </mxCell>
        <mxCell id="135Wbb7dRrLtCOBs6Vqc-2" value="Use case diagram: Uni-Chat system" style="text;html=1;align=center;verticalAlign=middle;resizable=0;points=[];autosize=1;strokeColor=none;" vertex="1" parent="1">
          <mxGeometry x="410" y="100" width="210" height="20" as="geometry" />
        </mxCell>
        <mxCell id="135Wbb7dRrLtCOBs6Vqc-8" value="First time user" style="shape=umlActor;verticalLabelPosition=bottom;verticalAlign=top;html=1;outlineConnect=0;" vertex="1" parent="1">
          <mxGeometry x="190" y="160" width="30" height="60" as="geometry" />
        </mxCell>
        <mxCell id="135Wbb7dRrLtCOBs6Vqc-10" value="" style="ellipse;whiteSpace=wrap;html=1;fillColor=#99FF99;" vertex="1" parent="1">
          <mxGeometry x="390" y="170" width="90" height="40" as="geometry" />
        </mxCell>
        <mxCell id="135Wbb7dRrLtCOBs6Vqc-11" value="Account registration" style="text;html=1;strokeColor=none;fillColor=none;align=center;verticalAlign=middle;whiteSpace=wrap;rounded=0;" vertex="1" parent="1">
          <mxGeometry x="400" y="180" width="70" height="20" as="geometry" />
        </mxCell>
        <mxCell id="135Wbb7dRrLtCOBs6Vqc-12" value="" style="endArrow=classic;html=1;" edge="1" parent="1" source="135Wbb7dRrLtCOBs6Vqc-8">
          <mxGeometry width="50" height="50" relative="1" as="geometry">
            <mxPoint x="500" y="260" as="sourcePoint" />
            <mxPoint x="390" y="190" as="targetPoint" />
          </mxGeometry>
        </mxCell>
        <mxCell id="135Wbb7dRrLtCOBs6Vqc-15" value="Provide valid&lt;br&gt;personal information" style="text;html=1;align=center;verticalAlign=middle;resizable=0;points=[];autosize=1;strokeColor=none;" vertex="1" parent="1">
          <mxGeometry x="220" y="190" width="120" height="30" as="geometry" />
        </mxCell>
        <mxCell id="135Wbb7dRrLtCOBs6Vqc-16" value="Message verification" style="ellipse;whiteSpace=wrap;html=1;fillColor=#99FF99;" vertex="1" parent="1">
          <mxGeometry x="390" y="240" width="90" height="40" as="geometry" />
        </mxCell>
        <mxCell id="135Wbb7dRrLtCOBs6Vqc-17" value="" style="endArrow=classic;html=1;exitX=0.5;exitY=0;exitDx=0;exitDy=0;entryX=0.257;entryY=0.136;entryDx=0;entryDy=0;entryPerimeter=0;" edge="1" parent="1" source="135Wbb7dRrLtCOBs6Vqc-16" target="135Wbb7dRrLtCOBs6Vqc-1">
          <mxGeometry width="50" height="50" relative="1" as="geometry">
            <mxPoint x="500" y="250" as="sourcePoint" />
            <mxPoint x="550" y="200" as="targetPoint" />
          </mxGeometry>
        </mxCell>
        <mxCell id="135Wbb7dRrLtCOBs6Vqc-18" value="&amp;lt;&amp;lt;Use&amp;gt;&amp;gt;" style="text;html=1;strokeColor=none;fillColor=none;align=center;verticalAlign=middle;whiteSpace=wrap;rounded=0;" vertex="1" parent="1">
          <mxGeometry x="450" y="220" width="40" height="20" as="geometry" />
        </mxCell>
        <mxCell id="135Wbb7dRrLtCOBs6Vqc-19" value="" style="endArrow=classic;html=1;exitX=0.03;exitY=0.267;exitDx=0;exitDy=0;exitPerimeter=0;" edge="1" parent="1" source="135Wbb7dRrLtCOBs6Vqc-16">
          <mxGeometry width="50" height="50" relative="1" as="geometry">
            <mxPoint x="500" y="250" as="sourcePoint" />
            <mxPoint x="240" y="230" as="targetPoint" />
          </mxGeometry>
        </mxCell>
        <mxCell id="135Wbb7dRrLtCOBs6Vqc-20" value="notify" style="text;html=1;align=center;verticalAlign=middle;resizable=0;points=[];autosize=1;strokeColor=none;" vertex="1" parent="1">
          <mxGeometry x="340" y="230" width="40" height="20" as="geometry" />
        </mxCell>
        <mxCell id="135Wbb7dRrLtCOBs6Vqc-21" value="" style="endArrow=classic;html=1;entryX=0;entryY=0.5;entryDx=0;entryDy=0;" edge="1" parent="1" target="135Wbb7dRrLtCOBs6Vqc-16">
          <mxGeometry width="50" height="50" relative="1" as="geometry">
            <mxPoint x="200" y="240" as="sourcePoint" />
            <mxPoint x="550" y="200" as="targetPoint" />
            <Array as="points">
              <mxPoint x="260" y="260" />
            </Array>
          </mxGeometry>
        </mxCell>
        <mxCell id="135Wbb7dRrLtCOBs6Vqc-22" value="Confirm" style="text;html=1;align=center;verticalAlign=middle;resizable=0;points=[];autosize=1;strokeColor=none;" vertex="1" parent="1">
          <mxGeometry x="260" y="260" width="60" height="20" as="geometry" />
        </mxCell>
      </root>
    </mxGraphModel>
  </diagram>
</mxfile>
